<?xml version="1.0" standalone="no"?><!DOCTYPE svg PUBLIC "-//W3C//DTD SVG 1.1//EN" "http://www.w3.org/Graphics/SVG/1.1/DTD/svg11.dtd"><svg t="1712492601004" class="icon" viewBox="0 0 1024 1024" version="1.1" xmlns="http://www.w3.org/2000/svg" p-id="1586" xmlns:xlink="http://www.w3.org/1999/xlink" width="200" height="200"><path d="M222.254545 368.174545a103.098182 103.098182 0 0 0-103.098181 103.098182v333.265455a103.330909 103.330909 0 0 0 206.429091 0V471.272727a103.098182 103.098182 0 0 0-103.33091-103.098182z m584.843637 179.898182A103.098182 103.098182 0 0 0 704 651.636364v153.367272a103.330909 103.330909 0 0 0 206.429091 0V651.636364a103.098182 103.098182 0 0 0-103.330909-103.563637zM514.792727 116.363636a103.330909 103.330909 0 0 0-103.330909 103.098182v585.076364a103.330909 103.330909 0 0 0 206.429091 0V219.461818A103.098182 103.098182 0 0 0 514.792727 116.363636z" fill="#FF6320" p-id="1587"></path></svg>