<?xml version="1.0" standalone="no"?><!DOCTYPE svg PUBLIC "-//W3C//DTD SVG 1.1//EN" "http://www.w3.org/Graphics/SVG/1.1/DTD/svg11.dtd"><svg t="1712492944052" class="icon" viewBox="0 0 1024 1024" version="1.1" xmlns="http://www.w3.org/2000/svg" p-id="2270" xmlns:xlink="http://www.w3.org/1999/xlink" width="200" height="200"><path d="M873.890909 318.370909a94.254545 94.254545 0 0 0-78.429091-88.669091 890.181818 890.181818 0 0 1-118.923636-25.134545 476.16 476.16 0 0 1-103.563637-60.741818 98.443636 98.443636 0 0 0-118.923636 5.12 283.461818 283.461818 0 0 1-98.676364 53.061818h-2.56a323.258182 323.258182 0 0 1-111.243636 27.694545 93.090909 93.090909 0 0 0-80.756364 88.669091v207.36c2.094545 197.12 227.607273 391.912727 359.098182 391.912727 123.810909 0 321.163636-139.636364 351.418182-384.465454a2004.48 2004.48 0 0 0 2.56-214.807273z m-162.909091 209.454546a46.545455 46.545455 0 0 1-46.545454 46.545454h-93.090909v93.090909a46.545455 46.545455 0 0 1-46.545455 46.545455H512a46.545455 46.545455 0 0 1-46.545455-46.545455v-93.090909h-93.090909a46.545455 46.545455 0 0 1-46.545454-46.545454v-13.498182a46.545455 46.545455 0 0 1 46.545454-46.545455h93.090909v-93.090909a46.545455 46.545455 0 0 1 46.545455-46.545454h13.730909a46.545455 46.545455 0 0 1 46.545455 46.545454v93.090909h93.090909a46.545455 46.545455 0 0 1 46.545454 46.545455z" fill="#FF6320" p-id="2271"></path></svg>